# xmcd
#
# Track frame offsets:
#	150
#	15234
#	30215
#	42597
#	56376
#	68805
#	81036
#	97098
#	110789
#	125016
#	138701
#	153305
#	167579
#	180968
#
# Disc length: 2614
#
# Revision: 1
# Processed by: cddbd v1.5.1PL0 Copyright (c) Steve Scherf et al.
# Submitted via: ExactAudioCopy v0.95a3
# Normalized: r0:TRMNUM
#
DISCID=b00a340e
DTITLE=Joao Mineiro e Marciano - Novos Caminhos
DYEAR=1900
DGENRE=Country
TTITLE0=Se eu nao puder te esquecer
TTITLE1=as paredes azuis
TTITLE2=Telefone mais
TTITLE3=Meu desespero
TTITLE4=Pare com isso
TTITLE5=Minha serenata
TTITLE6=seu amor ainda é tudo
TTITLE7=Esta noite como lembrança
TTITLE8=No mesmo lugar
TTITLE9=Aline
TTITLE10=Viola esta chorando
TTITLE11=A bailarina
TTITLE12=Ainda ontem chorei de saudade
TTITLE13=O cantor e o peao
EXTD=
EXTT0=
EXTT1=
EXTT2=
EXTT3=
EXTT4=
EXTT5=
EXTT6=
EXTT7=
EXTT8=
EXTT9=
EXTT10=
EXTT11=
EXTT12=
EXTT13=
PLAYORDER=
